
    <svg width="200" height="100" xmlns="http://www.w3.org/2000/svg">
      <g transform="translate(-40, -90) scale(0.4)">
        <path id="svg_3" d="m110.45,277.97498l9.54922,0l2.95078,-8.78524l2.95078,8.78524l9.54921,0l-7.72546,5.42952l2.95093,8.78524l-7.72547,-5.42966l-7.72547,5.42966l2.95093,-8.78524l-7.72547,-5.42952z" stroke="black" fill="#fff" />
        <path id="svg_5" d="m218.45,252.97498l9.54922,0l2.95078,-8.78524l2.95078,8.78524l9.54922,0l-7.72547,5.42952l2.95094,8.78524l-7.72547,-5.42966l-7.72547,5.42966l2.95094,-8.78524l-7.72547,-5.42952z" stroke="black" fill="white" />
        <path id="svg_6" d="m270.45001,295.97498l9.54922,0l2.95078,-8.78524l2.95078,8.78524l9.54922,0l-7.72547,5.42952l2.95094,8.78524l-7.72547,-5.42966l-7.72547,5.42966l2.95094,-8.78524l-7.72547,-5.42952z" stroke="black" fill="#fff" />
        <path id="svg_7" d="m379.45,425.97501l9.54922,0l2.95078,-8.78524l2.95078,8.78524l9.54922,0l-7.72547,5.42952l2.95094,8.78524l-7.72547,-5.42966l-7.72547,5.42966l2.95094,-8.78524l-7.72547,-5.42952z" stroke="black" fill="#fff" />
        <path id="svg_8" d="m529.45003,436.97504l9.54922,0l2.95078,-8.78524l2.95078,8.78524l9.54922,0l-7.72547,5.42952l2.95094,8.78524l-7.72547,-5.42966l-7.72547,5.42966l2.95094,-8.78524l-7.72547,-5.42952z" stroke="black" fill="#fff" />
        <path id="svg_9" d="m547.45006,338.97501l9.54922,0l2.95078,-8.78524l2.95078,8.78524l9.54922,0l-7.72547,5.42952l2.95094,8.78524l-7.72547,-5.42966l-7.72547,5.42966l2.95094,-8.78524l-7.72547,-5.42952z" stroke="black" fill="#fff" />
        <path id="svg_10" d="m362.45003,345.97501l9.54922,0l2.95078,-8.78524l2.95078,8.78524l9.54922,0l-7.72547,5.42952l2.95094,8.78524l-7.72547,-5.42966l-7.72547,5.42966l2.95094,-8.78524l-7.72547,-5.42952z" stroke="black" fill="#fff" />
        <line id="svg_11" y2="257.00005" x2="232.0001" y1="282.00006" x1="123.00008" stroke="mediumpurple" fill="none" />
        <line id="svg_12" y2="441.00008" x2="542.00014" y1="342.00007" x1="560.00015" stroke="mediumpurple" fill="none" />
        <line id="svg_13" y2="442.00008" x2="543.00014" y1="428.00008" x1="391.00012" stroke="mediumpurple" fill="none" />
        <line id="svg_14" y2="342.00007" x2="560.00015" y1="349.00007" x1="376.00012" stroke="mediumpurple" fill="none" />
        <line id="svg_15" y2="300.00006" x2="285.0001" y1="256.00005" x1="230.0001" stroke="mediumpurple" fill="none" />
        <line id="svg_16" y2="346.00007" x2="375.00012" y1="427.00008" x1="391.00012" stroke="mediumpurple" fill="none" />
        <line id="svg_17" y2="349.00007" x2="374.00012" y1="298.00006" x1="284.0001" stroke="mediumpurple" fill="none" />
      </g>
    </svg>
