<svg
  xmlns="http://www.w3.org/2000/svg"
  width="24"
  height="24"
  viewBox="0 0 24 24"
  fill="none"
  stroke="white"
  stroke-width="2"
  stroke-linecap="round"
  stroke-linejoin="round"
>
  <path stroke="white" d="M22 20v-9H2v9a2 2 0 0 0 2 2h16a2 2 0 0 0 2-2Z" />
  <path stroke="white" d="M18 11V4H6v7" />
  <path stroke="white" d="M15 22v-4a3 3 0 0 0-3-3a3 3 0 0 0-3 3v4" />
  <path stroke="white" d="M22 11V9" />
  <path stroke="white" d="M2 11V9" />
  <path stroke="white" d="M6 4V2" />
  <path stroke="white" d="M18 4V2" />
  <path stroke="white" d="M10 4V2" />
  <path stroke="white" d="M14 4V2" />
</svg>
