<svg  
  xmlns="http://www.w3.org/2000/svg"


  viewBox="0 0 24 24"
  fill="none"
  stroke="white"
stroke-linecap="round"
  stroke-linejoin="round"
           width="20" height="20">
  <path stroke="white" d="M10 12V8.964" />
  <path stroke="white" d="M14 12V8.964" />
  <path stroke="white" d="M15 12a1 1 0 0 1 1 1v2a2 2 0 0 1-2 2h-4a2 2 0 0 1-2-2v-2a1 1 0 0 1 1-1z" />
  <path stroke="white" d="M8.5 21H5a2 2 0 0 1-2-2v-9a2 2 0 0 1 .709-1.528l7-5.999a2 2 0 0 1 2.582 0l7 5.999A2 2 0 0 1 21 10v9a2 2 0 0 1-2 2h-5a2 2 0 0 1-2-2v-2" />
</svg>
