<svg            
  xmlns="http://www.w3.org/2000/svg"
  
  
  viewBox="0 0 24 24"
  fill="none"
  stroke="white"
stroke-linecap="round"
  stroke-linejoin="round"
           width="20" height="20">
  <path stroke="white" d="M14 14a2 2 0 0 1 2 2v4a2 2 0 0 1-2 2" />
  <path stroke="white" d="M14 4a2 2 0 0 1 2-2" />
  <path stroke="white" d="M16 10a2 2 0 0 1-2-2" />
  <path stroke="white" d="M20 14a2 2 0 0 1 2 2v4a2 2 0 0 1-2 2" />
  <path stroke="white" d="M20 2a2 2 0 0 1 2 2" />
  <path stroke="white" d="M22 8a2 2 0 0 1-2 2" />
  <path stroke="white" d="m3 7 3 3 3-3" />
  <path stroke="white" d="M6 10V5a 3 3 0 0 1 3-3h1" />
  <rect x="2" y="14"   rx="2" />
</svg>
