<svg            
  xmlns="http://www.w3.org/2000/svg"
  
  
  viewBox="0 0 24 24"
  fill="none"
  stroke="white"
stroke-linecap="round"
  stroke-linejoin="round"
           width="20" height="20">
  <path stroke="white" d="m21.64 3.64-1.28-1.28a1.21 1.21 0 0 0-1.72 0L2.36 18.64a1.21 1.21 0 0 0 0 1.72l1.28 1.28a1.2 1.2 0 0 0 1.72 0L21.64 5.36a1.2 1.2 0 0 0 0-1.72" />
  <path stroke="white" d="m14 7 3 3" />
  <path stroke="white" d="M5 6v4" />
  <path stroke="white" d="M19 14v4" />
  <path stroke="white" d="M10 2v2" />
  <path stroke="white" d="M7 8H3" />
  <path stroke="white" d="M21 16h-4" />
  <path stroke="white" d="M11 3H9" />
</svg>
