<svg  
  xmlns="http://www.w3.org/2000/svg"


  viewBox="0 0 24 24"
  fill="none"
  stroke="white"
stroke-linecap="round"
  stroke-linejoin="round"
           width="20" height="20">
  <path stroke="white" d="M8 2v4" />
  <path stroke="white" d="M12 2v4" />
  <path stroke="white" d="M16 2v4" />
  <path stroke="white" d="M16 4h2a2 2 0 0 1 2 2v2" />
  <path stroke="white" d="M20 12v2" />
  <path stroke="white" d="M20 18v2a2 2 0 0 1-2 2h-1" />
  <path stroke="white" d="M13 22h-2" />
  <path stroke="white" d="M7 22H6a2 2 0 0 1-2-2v-2" />
  <path stroke="white" d="M4 14v-2" />
  <path stroke="white" d="M4 8V6a2 2 0 0 1 2-2h2" />
  <path stroke="white" d="M8 10h6" />
  <path stroke="white" d="M8 14h8" />
  <path stroke="white" d="M8 18h5" />
</svg>
