<svg  
  xmlns="http://www.w3.org/2000/svg"


  viewBox="0 0 24 24"
  fill="none"
  stroke="white"
stroke-linecap="round"
  stroke-linejoin="round"
           width="20" height="20">
  <path stroke="white" d="M12 12H3a1 1 0 0 0-1 1v2a1 1 0 0 0 1 1h13" />
  <path stroke="white" d="M18 8c0-2.5-2-2.5-2-5" />
  <path stroke="white" d="m2 2 20 20" />
  <path stroke="white" d="M21 12a1 1 0 0 1 1 1v2a1 1 0 0 1-.5.866" />
  <path stroke="white" d="M22 8c0-2.5-2-2.5-2-5" />
  <path stroke="white" d="M7 12v4" />
</svg>
