<svg            
  xmlns="http://www.w3.org/2000/svg"
  
  
  viewBox="0 0 24 24"
  fill="none"
  stroke="white"
stroke-linecap="round"
  stroke-linejoin="round"
           width="20" height="20">
  <path stroke="white" d="M14 22v-4a2 2 0 1 0-4 0v4" />
  <path stroke="white" d="m18 10 3.447 1.724a1 1 0 0 1 .553.894V20a2 2 0 0 1-2 2H4a2 2 0 0 1-2-2v-7.382a1 1 0 0 1 .553-.894L6 10" />
  <path stroke="white" d="M18 5v17" />
  <path stroke="white" d="m4 6 7.106-3.553a2 2 0 0 1 1.788 0L20 6" />
  <path stroke="white" d="M6 5v17" />
  <circle cx="12" cy="9" r="2" />
</svg>
