<svg  
  xmlns="http://www.w3.org/2000/svg"


  viewBox="0 0 24 24"
  fill="none"
  stroke="white"
stroke-linecap="round"
  stroke-linejoin="round"
           width="20" height="20">
  <path stroke="white" d="M12 20a8 8 0 1 0 0-16 8 8 0 0 0 0 16Z" />
  <path stroke="white" d="M12 14a2 2 0 1 0 0-4 2 2 0 0 0 0 4Z" />
  <path stroke="white" d="M12 2v2" />
  <path stroke="white" d="M12 22v-2" />
  <path stroke="white" d="m17 20.66-1-1.73" />
  <path stroke="white" d="M11 10.27 7 3.34" />
  <path stroke="white" d="m20.66 17-1.73-1" />
  <path stroke="white" d="m3.34 7 1.73 1" />
  <path stroke="white" d="M14 12h8" />
  <path stroke="white" d="M2 12h2" />
  <path stroke="white" d="m20.66 7-1.73 1" />
  <path stroke="white" d="m3.34 17 1.73-1" />
  <path stroke="white" d="m17 3.34-1 1.73" />
  <path stroke="white" d="m11 13.73-4 6.93" />
</svg>
