<?xml version="1.0" encoding="UTF-8"?>
<!DOCTYPE svg PUBLIC "-//W3C//DTD SVG 1.1//EN"
"http://www.w3.org/TR/2001/REC-SVG-20010904/DTD/svg11.dtd">

<!-- Generated by SWFRIP -->

<svg             xmlns:xlink="http://www.w3.org/1999/xlink" xmlns="http://www.w3.org/2000/svg"    viewBox="-8.90 -8.85 19.55 18.25"           width="20" height="20">

<!-- Shape 10 -->

<g id="shape_10" >

<!-- Path Fills -->

<path stroke="white" fill="white"  d="M 0.05,-7.50 M 0.05,-7.50 l -1.75,2.30 l 0.00,-3.65 l -0.75,0.00 l 0.00,4.70 l -1.85,2.50 l 1.00,0.00 l 0.00,1.40 l -5.60,5.00 l 1.05,0.00 l 0.00,4.65 l 1.70,0.00 l 0.00,-3.10 l 2.00,0.00 l 0.00,3.10 l 3.60,0.00 l 0.00,-3.40 l 1.25,0.00 l 0.00,3.40 l 6.15,0.00 l 0.00,-2.35 l 1.25,0.00 l 0.00,2.35 l 1.50,0.00 l 0.00,-6.55 l 1.05,0.00 l -4.35,-4.05 l -2.95,2.80 l 0.00,-3.25 l 1.00,0.00 l -4.30,-5.85 M 1.65,-0.40 l 0.00,4.30 l -1.20,0.00 l 0.00,-4.30 l 1.20,0.00 M 7.95,3.10 l 0.00,2.50 l -1.25,0.00 l 0.00,-2.50 l 1.25,0.00 M 5.60,5.60 l -1.25,0.00 l 0.00,-2.50 l 1.25,0.00 l 0.00,2.50 M -0.65,-0.40 l 0.00,4.30 l -1.30,0.00 l 0.00,-4.30 l 1.30,0.00 "/>

<!-- Path Lines -->

<path stroke="white" fill="white"  d="M 0.05,-7.50 "/>

</g>

</svg>
